<svg width="240" height="71" viewBox="0 0 240 71" fill="none" xmlns="http://www.w3.org/2000/svg">
<g clip-path="url(#clip0_15_2)">
<path d="M123.907 23.5168L135.326 22.9288C135.586 24.4159 136.064 25.5226 136.845 26.318C138.104 27.563 139.841 28.1855 142.142 28.1855C143.835 28.1855 145.181 27.8743 146.093 27.2172C146.961 26.6984 147.482 25.8684 147.482 25.0039C147.482 24.1739 147.004 23.3784 146.179 22.8597C145.311 22.2372 143.271 21.6147 140.058 21.0613C134.805 20.1276 131.028 18.8826 128.813 17.2917C126.599 15.8046 125.34 13.6259 125.427 11.3088C125.427 9.71793 126.035 8.12709 127.164 6.81291C128.466 5.32582 130.246 4.14998 132.373 3.49289C134.674 2.69747 137.887 2.28247 141.925 2.28247C146.874 2.28247 150.651 3.00873 153.256 4.49582C155.861 5.94833 157.424 8.30001 157.902 11.5163L146.614 12.035C146.31 10.6517 145.702 9.64876 144.703 8.99168C143.705 8.33459 142.402 8.02334 140.709 8.02334C139.32 8.02334 138.278 8.26542 137.583 8.71501C136.932 9.13001 136.498 9.75251 136.541 10.4442C136.541 10.9629 136.889 11.4471 137.41 11.7584C137.974 12.1734 139.32 12.5538 141.447 12.8996C146.7 13.7988 150.434 14.698 152.735 15.6317C155.036 16.5655 156.686 17.7067 157.685 19.0555C158.726 20.4388 159.247 22.0297 159.204 23.6551C159.204 25.5918 158.509 27.5285 157.12 29.1539C155.687 30.8485 153.69 32.1626 151.346 32.9581C148.871 33.8227 145.745 34.2722 142.012 34.2722C135.412 34.2722 130.854 33.2693 128.292 31.2289C125.731 29.1885 124.211 26.6293 123.907 23.5168ZM2.73517 33.7535V2.83581H22.7496C26.4399 2.83581 29.3054 3.07789 31.259 3.59664C33.1693 4.08081 34.8625 5.08374 35.9913 6.43249C37.2504 7.91959 37.8582 9.64876 37.8148 11.4471C37.945 14.4905 35.9913 17.3955 32.6483 18.9172C31.3459 19.5051 29.9132 19.9201 28.437 20.1276C29.5224 20.3697 30.6078 20.7847 31.5629 21.2688C32.301 21.753 32.9088 22.3063 33.4732 22.8943C34.1245 23.4822 34.6889 24.1393 35.1664 24.8309L40.9841 33.7881H27.3517L20.9262 24.2776C20.1013 23.0672 19.4067 22.2718 18.7554 21.8913C17.8871 21.4072 16.8452 21.1651 15.8032 21.1651H14.7612V33.7189H2.73517V33.7535ZM14.7612 15.355H19.8408C20.9262 15.2859 21.9682 15.1475 23.0101 14.94C23.7916 14.8363 24.4863 14.4905 24.9638 13.9717C26.136 12.7267 25.9624 10.9629 24.5297 9.89085C23.7482 9.3721 22.2287 9.09543 20.0579 9.09543H14.7612V15.355ZM0 60.2445L11.4182 59.6566C11.6787 61.1436 12.1563 62.2503 12.9378 63.0457C14.1534 64.2907 15.9334 64.9478 18.2344 64.9478C19.9276 64.9478 21.2735 64.6366 22.1852 63.9795C23.0535 63.4262 23.5745 62.6307 23.5745 61.7662C23.5745 60.9361 23.097 60.1407 22.2721 59.622C21.4038 58.9995 19.3632 58.377 16.1071 57.8236C10.8538 56.8899 7.0767 55.6449 4.86252 54.054C2.64834 52.5669 1.38929 50.3882 1.47612 48.0711C1.47612 46.4802 2.08394 44.8894 3.21274 43.5752C4.5152 42.0881 6.29522 40.9123 8.42258 40.2552C10.7236 39.4598 13.9363 39.0448 17.974 39.0448C22.9233 39.0448 26.7004 39.771 29.3054 41.2581C31.9103 42.7452 33.4298 45.0623 33.9074 48.2786L22.6194 48.7973C22.3155 47.414 21.7077 46.4111 20.7091 45.754C19.754 45.0969 18.4081 44.7856 16.7149 44.8202C15.3256 44.8202 14.2836 45.0623 13.589 45.5465C12.8944 45.9615 12.5036 46.584 12.547 47.2756C12.547 47.7944 12.8944 48.2786 13.4153 48.5898C13.9797 49.0048 15.3256 49.3852 17.453 49.7311C22.7062 50.6303 26.4399 51.5294 28.741 52.4632C31.042 53.3969 32.6918 54.5382 33.6903 55.8869C34.7323 57.2703 35.2533 58.8611 35.2533 60.452C35.2533 62.3887 34.5152 64.2908 33.1693 65.9162C31.7366 67.6108 29.7395 68.9249 27.3951 69.7204C24.9204 70.585 21.7945 71.0345 18.0608 71.0345C11.4616 71.0345 6.90304 70.0316 4.34153 67.9912C1.78003 65.9162 0.347323 63.357 0 60.2445Z" fill="#603D4D"/>
<path d="M57.7424 57.8237L68.2489 60.3483C67.6845 62.4579 66.5123 64.4637 64.9059 66.2275C63.4298 67.7837 61.4761 68.9941 59.2619 69.7896C57.0043 70.585 54.1389 71 50.6657 71C46.4544 71 42.9812 70.5158 40.3328 69.5475C37.6411 68.5791 35.3401 66.85 33.3864 64.3945C31.4327 61.9391 30.4775 58.792 30.4775 54.9532C30.4775 49.8349 32.1707 45.8923 35.6006 43.1602C39.0304 40.4281 43.8495 39.0448 50.1013 39.0448C55.0072 39.0448 58.8278 39.8402 61.6498 41.3965C64.4283 42.9873 66.5123 45.4082 67.9016 48.659L57.3082 50.5265C57.0477 49.8003 56.657 49.074 56.136 48.4515C55.4848 47.7253 54.6599 47.1719 53.6613 46.7569C52.6628 46.3419 51.534 46.169 50.4052 46.169C47.67 46.169 45.5861 47.0336 44.1534 48.7974C43.068 50.0769 42.5036 52.1174 42.5036 54.8841C42.5036 58.3078 43.1548 60.6595 44.4573 61.9391C45.7597 63.2187 47.5832 63.8412 49.971 63.8412C52.272 63.8412 54.0087 63.3224 55.1809 62.3195C56.3531 61.2474 57.2214 59.7603 57.7424 57.8237ZM82.272 39.5636H94.2547V50.3882H107.366V39.5636H119.436V70.4812H107.366V57.962H94.2547V70.4812H82.272V39.5636V39.5636Z" fill="#603D4D"/>
<path d="M117.786 55.0224C117.786 49.9732 119.566 46.0307 123.083 43.2294C126.599 40.4282 131.548 39.0103 137.844 39.0103C144.313 39.0103 149.262 40.3936 152.779 43.1603C156.295 45.927 158.032 49.8003 158.032 54.7803C158.032 58.4116 157.25 61.3512 155.731 63.6683C154.255 65.9508 151.954 67.8183 149.132 69.0633C146.223 70.3429 142.619 71 138.321 71C133.936 71 130.333 70.4467 127.467 69.34C124.515 68.1642 122.084 66.3312 120.478 64.0833C118.698 61.6625 117.786 58.6537 117.786 55.0224ZM129.768 55.057C129.768 58.1695 130.507 60.4175 131.939 61.8008C133.372 63.1496 135.369 63.8412 137.887 63.8412C140.449 63.8412 142.446 63.1841 143.878 61.8354C145.311 60.4866 146.006 58.1004 146.006 54.642C146.006 51.737 145.268 49.5928 143.792 48.2786C142.316 46.9299 140.318 46.2728 137.8 46.2728C135.586 46.2036 133.459 46.9645 131.983 48.3132C130.507 49.662 129.768 51.9099 129.768 55.057V55.057ZM170.318 55.0224C170.318 49.9732 172.098 46.0307 175.615 43.2294C179.132 40.4282 184.081 39.0103 190.376 39.0103C196.845 39.0103 201.838 40.3936 205.311 43.1603C208.784 45.927 210.564 49.8003 210.564 54.7803C210.564 58.4116 209.783 61.3512 208.263 63.6683C206.787 65.9508 204.486 67.8183 201.664 69.0633C198.755 70.3429 195.152 71 190.854 71C186.469 71 182.865 70.4467 180 69.34C177.048 68.1642 174.617 66.3312 173.01 64.0833C171.23 61.6625 170.318 58.6537 170.318 55.0224V55.0224ZM182.301 55.057C182.301 58.1695 183.039 60.4175 184.472 61.8008C185.904 63.1496 187.902 63.8412 190.42 63.8412C192.981 63.8412 194.978 63.1841 196.411 61.8354C197.844 60.4866 198.538 58.1004 198.538 54.642C198.538 51.737 197.8 49.5928 196.324 48.2786C194.848 46.9299 192.851 46.2728 190.333 46.2728C188.119 46.2036 185.948 46.9645 184.515 48.3132C183.039 49.662 182.301 51.9099 182.301 55.057V55.057Z" fill="#603D4D"/>
<path d="M209.305 39.5636H221.288V62.8729H240V70.4813H209.262V39.5636H209.305Z" fill="#603D4D"/>
<path d="M196.098 37.7793C208.162 30.5376 211.882 18.2616 204.407 10.3601C196.932 2.45871 181.093 1.92398 169.029 9.16577C156.965 16.4076 153.245 28.6836 160.719 36.585C168.194 44.4864 184.034 45.0211 196.098 37.7793Z" fill="white"/>
<path d="M129.953 19.5537L192.294 -17.8687L235.433 27.7307L173.091 65.1531L129.953 19.5537Z" fill="white"/>
<path d="M196.098 37.7792C208.162 30.5374 211.882 18.2614 204.407 10.36C196.932 2.45859 181.093 1.92386 169.029 9.16565C156.965 16.4074 153.245 28.6834 160.719 36.5849C168.194 44.4863 184.034 45.021 196.098 37.7792Z" fill="white"/>
<path d="M147.313 22.5985L190.966 -3.60492L218.061 25.0366L174.408 51.2401L147.313 22.5985Z" fill="white"/>
<path d="M196.098 37.7792C208.162 30.5374 211.882 18.2614 204.407 10.36C196.932 2.45859 181.093 1.92386 169.029 9.16565C156.965 16.4074 153.245 28.6834 160.719 36.5849C168.194 44.4863 184.034 45.021 196.098 37.7792Z" fill="white" stroke="#603D4D" stroke-width="4" stroke-miterlimit="10"/>
<path d="M147.313 22.5985L190.966 -3.60492L218.061 25.0366L174.408 51.2401L147.313 22.5985Z" stroke="#603D4D" stroke-width="4" stroke-miterlimit="10"/>
<path d="M196.098 37.7792C208.162 30.5374 211.882 18.2614 204.407 10.36C196.932 2.45859 181.093 1.92386 169.029 9.16565C156.965 16.4074 153.245 28.6834 160.719 36.5849C168.194 44.4863 184.034 45.021 196.098 37.7792Z" stroke="#603D4D" stroke-width="4" stroke-miterlimit="10"/>
<path d="M147.313 22.5985L190.966 -3.60492L218.061 25.0366L174.408 51.2401L147.313 22.5985Z" fill="white"/>
<path d="M196.098 37.7792C208.162 30.5374 211.882 18.2614 204.407 10.36C196.932 2.45859 181.093 1.92386 169.029 9.16565C156.965 16.4074 153.245 28.6834 160.719 36.5849C168.194 44.4863 184.034 45.021 196.098 37.7792Z" fill="white" stroke="#603D4D" stroke-width="4" stroke-miterlimit="10"/>
<path d="M147.313 22.5985L190.966 -3.60492L218.061 25.0366L174.408 51.2401L147.313 22.5985Z" stroke="#603D4D" stroke-width="4" stroke-miterlimit="10"/>
<path d="M129.953 19.5537L192.294 -17.8687L235.433 27.7307L173.091 65.1531L129.953 19.5537Z" stroke="#603D4D" stroke-width="4" stroke-miterlimit="10"/>
<path d="M196.098 37.7792C208.162 30.5374 211.882 18.2614 204.407 10.36C196.932 2.45859 181.093 1.92386 169.029 9.16565C156.965 16.4074 153.245 28.6834 160.719 36.5849C168.194 44.4863 184.034 45.021 196.098 37.7792Z" stroke="#603D4D" stroke-width="4" stroke-miterlimit="10"/>
<path d="M170.362 21.1997L174.703 18.7788L180.043 24.8309C180.955 25.7993 181.65 26.8368 182.171 27.978C182.475 28.8426 182.388 29.7764 181.954 30.6064C181.389 31.6439 180.478 32.5085 179.262 33.131C177.829 33.9264 176.614 34.376 175.572 34.5143C174.573 34.6526 173.531 34.5143 172.576 34.1685C171.534 33.7535 170.622 33.1656 169.928 32.4047L173.661 29.638C173.965 30.0185 174.356 30.3643 174.79 30.641C175.094 30.8139 175.441 30.9176 175.832 30.9176C176.136 30.9176 176.44 30.8139 176.657 30.6755C177.091 30.468 177.395 30.053 177.352 29.638C177.221 29.0501 176.917 28.4622 176.44 28.0126L170.362 21.1997V21.1997ZM183.386 25.0384L187.337 22.5484C187.771 22.9634 188.336 23.2747 188.944 23.4476C189.812 23.6551 190.724 23.5167 191.462 23.0672C191.983 22.7905 192.417 22.4101 192.59 21.9259C192.851 21.3034 192.417 20.6117 191.635 20.4042C191.505 20.3696 191.375 20.3351 191.245 20.3351C190.724 20.3005 189.812 20.4734 188.466 20.923C186.252 21.6492 184.515 21.9259 183.213 21.8222C181.954 21.7184 180.781 21.1997 180.087 20.3351C179.566 19.7471 179.305 19.0555 179.262 18.3638C179.262 17.5684 179.522 16.773 180.087 16.1159C180.912 15.1821 181.91 14.3867 183.126 13.7642C184.949 12.7613 186.556 12.2771 187.945 12.2771C189.334 12.2771 190.637 12.7959 191.852 13.8679L187.945 16.3234C187.164 15.528 185.687 15.355 184.689 15.9775L184.559 16.0813C184.124 16.2888 183.821 16.6 183.647 16.9805C183.517 17.2571 183.603 17.5684 183.821 17.8105C183.994 17.9834 184.255 18.1217 184.559 18.1217C184.906 18.1563 185.514 18.018 186.382 17.7067C188.553 16.9805 190.203 16.5655 191.331 16.4271C192.287 16.2888 193.285 16.358 194.197 16.6692C195.022 16.9459 195.716 17.43 196.194 18.018C196.802 18.7096 197.149 19.5396 197.192 20.4042C197.236 21.3034 196.932 22.168 196.324 22.9288C195.543 23.8626 194.544 24.658 193.372 25.2805C190.984 26.5947 189.03 27.148 187.467 26.9405C185.774 26.733 184.385 26.0413 183.386 25.0384V25.0384Z" fill="#603D4D"/>
</g>
<defs>
<clipPath id="clip0_15_2">
<rect width="240" height="71" fill="white"/>
</clipPath>
</defs>
</svg>
